<svg width="213" height="159" viewBox="0 0 213 159" fill="none" xmlns="http://www.w3.org/2000/svg">
<path fill-rule="evenodd" clip-rule="evenodd" d="M45.8136 30.2856C54.1767 30.2856 60.9564 23.5059 60.9564 15.1428C60.9564 6.77966 54.1767 0 45.8136 0C37.4504 0 30.6708 6.77966 30.6708 15.1428C30.6708 23.5059 37.4504 30.2856 45.8136 30.2856ZM76.1007 37.8575C92.827 37.8575 106.386 51.4168 106.386 68.1431V113.572H106.385C106.385 121.935 113.165 128.714 121.528 128.714C129.891 128.714 136.671 121.935 136.671 113.572H136.67V68.1431C136.67 51.4168 150.229 37.8575 166.956 37.8575V113.571H166.957C166.957 138.66 146.618 158.999 121.528 158.999C96.4389 158.999 76.0999 138.66 76.0999 113.571H76.1007V37.8575ZM182.1 37.8575C198.826 37.8575 212.385 51.4168 212.385 68.1431V143.857C212.385 152.22 205.606 159 197.242 159C188.879 159 182.1 152.22 182.1 143.857V37.8575ZM212.385 15.1428C212.385 23.5059 205.606 30.2856 197.242 30.2856C188.879 30.2856 182.1 23.5059 182.1 15.1428C182.1 6.77966 188.879 0 197.242 0C205.606 0 212.385 6.77966 212.385 15.1428ZM60.9564 37.8575C44.2301 37.8575 30.6708 51.4168 30.6708 68.1431V113.572H30.6711C30.671 121.904 23.9414 128.664 15.621 128.714L15.5283 128.714C7.16516 128.714 0.385498 135.493 0.385498 143.856C0.385498 152.22 7.16516 158.999 15.5283 158.999L15.596 158.999C40.6544 158.963 60.9569 138.638 60.9569 113.571H60.9564V37.8575Z" fill="white"/>
</svg>
